<svg id="レイヤー_1" data-name="レイヤー 1" xmlns="http://www.w3.org/2000/svg" viewBox="0 0 162.16 162.16"><defs><style>.cls-1{fill:#e0ac6b;}.cls-2{fill:#fbfbfb;fill-rule:evenodd;}</style></defs><rect class="cls-1" width="162.16" height="162.16" rx="25"/><g id="p"><path class="cls-2" d="M142,62.74c-8.56-7.48-20.56-11.81-34.5-11.81-36.33,0-61,28.05-61,28.05l7,11.06s3.85.32,1.81-6.19c1.76-3.33,5.21-7.81,11.94-13v73.65c-2.9.82-6.74,2.35-4.12,5h20c2.64-2.64-1.52-4.23-4-5V127.14s13.71,5.39,28.5,5.39c13,0,24.81-3.87,33.61-10.85a36.89,36.89,0,0,0,14.42-29.17A39.1,39.1,0,0,0,142,62.74M106.3,125.66c-11.38,0-21-2.2-27.28-5.32V65.09c6.94-4.93,18.19-8,27.28-8,11,0,19.71,4.18,25.57,10.52s9,14.83,9.08,24.67a32.29,32.29,0,0,1-9.53,23.54A35.41,35.41,0,0,1,106.3,125.66Z" transform="translate(-18.92 -18.92)"/></g></svg>