<svg id="レイヤー_1" data-name="レイヤー 1" xmlns="http://www.w3.org/2000/svg" viewBox="0 0 162.16 162.16"><defs><style>.cls-1{fill:#e0ac6b;}.cls-2{fill:#fbfbfb;}</style></defs><rect class="cls-1" width="162.16" height="162.16" rx="25"/><path class="cls-2" d="M156.76,130.14a13.91,13.91,0,0,1-1.8,6.75L119.55,97.26l35-30.65a13.93,13.93,0,0,1,2.18,7.45v56.08Zm-56.08-25.68L149.43,61.8A13.92,13.92,0,0,0,142.74,60H58.61a13.82,13.82,0,0,0-6.67,1.76Zm13.59-2.58L103,111.75a3.5,3.5,0,0,1-4.62,0l-11.28-9.88L51.22,142a13.84,13.84,0,0,0,7.39,2.15h84.13a13.84,13.84,0,0,0,7.4-2.15ZM46.78,66.61a13.85,13.85,0,0,0-2.19,7.45v56.08a13.91,13.91,0,0,0,1.8,6.75L81.81,97.25Z" transform="translate(-18.92 -18.92)"/></svg>