<svg id="レイヤー_1" data-name="レイヤー 1" xmlns="http://www.w3.org/2000/svg" viewBox="0 0 162.16 162.16"><defs><style>.cls-1{fill:#e0ac6b;}.cls-2{fill:#fbfbfb;}</style></defs><rect class="cls-1" width="162.16" height="162.16" rx="25"/><path class="cls-2" d="M158.7,65.25a47.27,47.27,0,0,1-13.62,3.66,23,23,0,0,0,10.4-13,46.35,46.35,0,0,1-15,5.71,23.7,23.7,0,0,0-34-.55,22.8,22.8,0,0,0-6.92,16.73,26.35,26.35,0,0,0,.59,5.42,65.89,65.89,0,0,1-27.2-7.29A67,67,0,0,1,51.37,58.44,23.66,23.66,0,0,0,51,81.65a23.59,23.59,0,0,0,7.69,8.42,23.56,23.56,0,0,1-10.69-3v.29a22.87,22.87,0,0,0,5.38,15A23.24,23.24,0,0,0,67,110.57a24.29,24.29,0,0,1-6.22.8,30.46,30.46,0,0,1-4.47-.36,23.7,23.7,0,0,0,22.11,16.4A46.32,46.32,0,0,1,49,137.51a49.55,49.55,0,0,1-5.71-.29,65.65,65.65,0,0,0,36.32,10.61,68.87,68.87,0,0,0,23.64-4,60,60,0,0,0,18.89-10.68,71.62,71.62,0,0,0,13.51-15.42,68.79,68.79,0,0,0,8.46-18.19,67.32,67.32,0,0,0,2.78-19c0-1.37,0-2.39-.07-3.07A49.78,49.78,0,0,0,158.7,65.25Z" transform="translate(-18.92 -18.92)"/></svg>