<?xml version="1.0" encoding="utf-8"?>
<!-- Generator: Adobe Illustrator 25.2.1, SVG Export Plug-In . SVG Version: 6.00 Build 0)  -->
<svg version="1.1" id="レイヤー_1" xmlns="http://www.w3.org/2000/svg" xmlns:xlink="http://www.w3.org/1999/xlink" x="0px"
	 y="0px" viewBox="0 0 595.3 595.3" style="enable-background:new 0 0 595.3 595.3;" xml:space="preserve">
<style type="text/css">
	.st0{fill:#FFE8AA;}
</style>
<path class="st0" d="M306,415c66.7,56.2,100.8,126.1,201.6,167.9c56.7-109,46.4-220.8,4.2-304.9c-29.7-59.2-80.1-111.6-179.1-126.8
	c18.2-3.4,40.2-0.6,63.1,3.8C373.6,108.1,249.2,62.6,181,77.5C329,166.2,405.3,285,446.6,418.6c-66.6-162-200.4-295.7-411.4-397
	c-0.1,6-12.1,10-7.2,13.5c29.7,21.2,92.8,42.7,116.3,69.9c-16.5,42-10.4,74.4,0.6,104.9c12-15,22.2-32.7,42.5-34.1
	c-53.4,102.6,31.3,147.2,83.5,205.4c10.8-26.2,19.4-56,41.3-63.9C298.4,354.9,300.3,385.8,306,415z"/>
</svg>
