<svg id="レイヤー_1" data-name="レイヤー 1" xmlns="http://www.w3.org/2000/svg" viewBox="0 0 97.4 26"><defs><style>.cls-1{fill:#fbfbfb;}.cls-2{fill:none;stroke:#e0ac6b;stroke-miterlimit:10;}.cls-3{fill:#e0ac6b;}</style></defs><rect class="cls-1" x="0.5" y="0.5" width="96.4" height="25" rx="6"/><rect class="cls-2" x="0.5" y="0.5" width="96.4" height="25" rx="6"/><path class="cls-3" d="M94.41,9.14h.47L95,13h-.62A4.1,4.1,0,0,0,93,10.69a4.31,4.31,0,0,0-4.37-.44,3.69,3.69,0,0,0-1.36,1.16,5.49,5.49,0,0,0-.85,1.84,9.77,9.77,0,0,0-.29,2.46,6.64,6.64,0,0,0,1.12,4.15,3.87,3.87,0,0,0,3.26,1.45c2.15,0,3.54-1.14,4.15-3.43h.69v4.17h-.59l-.38-1.32a6.38,6.38,0,0,1-4.26,1.49,7,7,0,0,1-2.57-.45,5.54,5.54,0,0,1-2-1.29,5.42,5.42,0,0,1-1.26-2,7.39,7.39,0,0,1-.45-2.64A8,8,0,0,1,84.33,13a6.37,6.37,0,0,1,1.32-2.16,5.81,5.81,0,0,1,2-1.4A6.65,6.65,0,0,1,90.28,9a6.15,6.15,0,0,1,1.9.28,9.49,9.49,0,0,1,1.93.92Z" transform="translate(-49.49 -2.62)"/><path class="cls-3" d="M99.81,19.44a7.19,7.19,0,0,0,0,1,1.18,1.18,0,0,0,.21.6.73.73,0,0,0,.45.3,3,3,0,0,0,.78.1v.59H96.67v-.59a3.36,3.36,0,0,0,.81-.1,1,1,0,0,0,.47-.3,1.07,1.07,0,0,0,.24-.56,6,6,0,0,0,.06-.95V12.33c0-.61,0-1.11,0-1.52a5.25,5.25,0,0,0-.07-.83.69.69,0,0,0-.4-.52,3.14,3.14,0,0,0-1.11-.13V8.76l3.17-.62Z" transform="translate(-49.49 -2.62)"/><path class="cls-3" d="M107.2,13a4.78,4.78,0,0,1,1.81.34,4.85,4.85,0,0,1,1.5.95,4.45,4.45,0,0,1,1,1.43,4.24,4.24,0,0,1,.38,1.82,4.58,4.58,0,0,1-1.4,3.35,4.72,4.72,0,0,1-3.31,1.33,4.91,4.91,0,0,1-1.79-.34,4.58,4.58,0,0,1-1.48-1,4.68,4.68,0,0,1-1-1.48,4.89,4.89,0,0,1-.36-1.89,4.6,4.6,0,0,1,.36-1.83,4.74,4.74,0,0,1,1-1.44,4.85,4.85,0,0,1,1.48-.94A4.9,4.9,0,0,1,107.2,13Zm0,.8a2.39,2.39,0,0,0-1.13.27,2.52,2.52,0,0,0-.87.76,3.75,3.75,0,0,0-.56,1.19,5.75,5.75,0,0,0-.19,1.54,5.82,5.82,0,0,0,.19,1.57,3.7,3.7,0,0,0,.56,1.2,2.52,2.52,0,0,0,.86.77,2.37,2.37,0,0,0,1.14.26,2.5,2.5,0,0,0,1.16-.26,2.71,2.71,0,0,0,.89-.77,4.11,4.11,0,0,0,.57-1.21,5.84,5.84,0,0,0,.2-1.56,5.61,5.61,0,0,0-.2-1.53,4,4,0,0,0-.57-1.18,2.71,2.71,0,0,0-.89-.77A2.52,2.52,0,0,0,107.2,13.8Z" transform="translate(-49.49 -2.62)"/><path class="cls-3" d="M114.16,22.05h-.37V19.17h.42c.43,1.57,1.23,2.36,2.38,2.36a1.65,1.65,0,0,0,1.06-.32,1.21,1.21,0,0,0,.4-1,1,1,0,0,0-.36-.8,4.29,4.29,0,0,0-.59-.44l-1-.64c-.38-.23-.71-.45-1-.65a4.88,4.88,0,0,1-.7-.62,2.14,2.14,0,0,1-.43-.66,2.27,2.27,0,0,1-.14-.82,2.76,2.76,0,0,1,.19-1.05,2.41,2.41,0,0,1,1.32-1.34,2.46,2.46,0,0,1,1-.19,3.57,3.57,0,0,1,.94.14,3.48,3.48,0,0,1,.85.38l.34-.35h.31v2.41h-.43a4.1,4.1,0,0,0-.81-1.46,1.46,1.46,0,0,0-1.07-.43,1.33,1.33,0,0,0-.91.3,1.06,1.06,0,0,0-.35.84,1.07,1.07,0,0,0,.1.49,1.19,1.19,0,0,0,.29.41,2.84,2.84,0,0,0,.51.41l.75.48c.48.3.89.57,1.23.8a5.15,5.15,0,0,1,.83.7,2.5,2.5,0,0,1,.47.71,2.24,2.24,0,0,1,.15.84,2.38,2.38,0,0,1-.77,1.87,3,3,0,0,1-2,.68,3.46,3.46,0,0,1-2.25-.76Z" transform="translate(-49.49 -2.62)"/><path class="cls-3" d="M129.08,20.49a4.42,4.42,0,0,1-3.54,1.73,4.64,4.64,0,0,1-1.79-.33,4,4,0,0,1-1.39-.92,4.23,4.23,0,0,1-.89-1.42,5,5,0,0,1-.32-1.84,5.29,5.29,0,0,1,.33-1.89,4.37,4.37,0,0,1,1-1.5,4.49,4.49,0,0,1,1.46-1,4.84,4.84,0,0,1,1.85-.35,3.42,3.42,0,0,1,2.52.88,3.41,3.41,0,0,1,.88,2.52c0,.16,0,.25-.09.29a1.17,1.17,0,0,1-.43,0h-5.51a2.4,2.4,0,0,0,0,.32c0,.13,0,.27,0,.43a5.67,5.67,0,0,0,.21,1.59,3.61,3.61,0,0,0,.6,1.21,2.79,2.79,0,0,0,.94.78,2.61,2.61,0,0,0,1.22.28,2.91,2.91,0,0,0,1.31-.31,4.73,4.73,0,0,0,1.24-1ZM126.31,16l.54,0a.73.73,0,0,0,.3-.07.22.22,0,0,0,.13-.14.55.55,0,0,0,0-.24,1.62,1.62,0,0,0-.5-1.24,1.94,1.94,0,0,0-1.35-.46c-1.2,0-2,.72-2.24,2.17Z" transform="translate(-49.49 -2.62)"/><line class="cls-2" x1="15.87" y1="6.84" x2="28.2" y2="19.16"/><line class="cls-2" x1="28.2" y1="6.84" x2="15.87" y2="19.16"/></svg>