<svg xmlns="http://www.w3.org/2000/svg" viewBox="0 0 30.48 20"><defs><style>.cls-1,.cls-2{fill:none;stroke-linejoin:round;}.cls-1,.cls-2,.cls-3{stroke:#ecb667;stroke-width:0.25px;}.cls-2,.cls-3{stroke-linecap:round;}.cls-3{fill:#231815;stroke-miterlimit:10;}.cls-4{fill:#ecb667;}</style></defs><g id="レイヤー_1" data-name="レイヤー 1"><path class="cls-1" d="M-9.48,9.27H25.59l1.41.86-1.41.71H-10.07"/><line class="cls-2" x1="-17.01" y1="10.06" x2="25.39" y2="10.06"/></g><g id="レイヤー_2" data-name="レイヤー 2"><line class="cls-3" x1="27.2" y1="1.49" x2="27.2" y2="10.41"/><circle class="cls-4" cx="27.95" cy="2.17" r="0.37"/><rect class="cls-4" x="27.2" y="2.07" width="0.66" height="0.26"/><circle class="cls-4" cx="27.95" cy="3.17" r="0.37"/><rect class="cls-4" x="27.2" y="3.07" width="0.66" height="0.26"/><circle class="cls-4" cx="27.95" cy="4.17" r="0.37"/><rect class="cls-4" x="27.2" y="4.07" width="0.66" height="0.26"/><circle class="cls-4" cx="27.95" cy="5.17" r="0.37"/><rect class="cls-4" x="27.2" y="5.07" width="0.66" height="0.26"/><circle class="cls-4" cx="27.95" cy="6.17" r="0.37"/><rect class="cls-4" x="27.2" y="6.07" width="0.66" height="0.26"/><circle class="cls-4" cx="27.95" cy="7.17" r="0.37"/><rect class="cls-4" x="27.2" y="7.07" width="0.66" height="0.26"/><circle class="cls-4" cx="27.95" cy="8.17" r="0.37"/><rect class="cls-4" x="27.2" y="8.07" width="0.66" height="0.26"/><line class="cls-3" x1="27.2" y1="9.49" x2="27.2" y2="18.41"/><circle class="cls-4" cx="27.95" cy="12.17" r="0.37"/><rect class="cls-4" x="27.2" y="12.07" width="0.66" height="0.26"/><circle class="cls-4" cx="27.95" cy="13.17" r="0.37"/><rect class="cls-4" x="27.2" y="13.07" width="0.66" height="0.26"/><circle class="cls-4" cx="27.95" cy="14.17" r="0.37"/><rect class="cls-4" x="27.2" y="14.07" width="0.66" height="0.26"/><circle class="cls-4" cx="27.95" cy="15.17" r="0.37"/><rect class="cls-4" x="27.2" y="15.07" width="0.66" height="0.26"/><circle class="cls-4" cx="27.95" cy="16.17" r="0.37"/><rect class="cls-4" x="27.2" y="16.07" width="0.66" height="0.26"/><circle class="cls-4" cx="27.95" cy="17.17" r="0.37"/><rect class="cls-4" x="27.2" y="17.07" width="0.66" height="0.26"/><circle class="cls-4" cx="27.95" cy="18.17" r="0.37"/><rect class="cls-4" x="27.2" y="18.07" width="0.66" height="0.26"/><path class="cls-4" d="M30.19,10.23c0-.05,0-.11,0-.17a1.24,1.24,0,0,0,0-.27l.28-.14a1,1,0,0,0-.08-.23l-.32.06a1.31,1.31,0,0,0-.25-.33L30,8.87l-.2-.14L29.52,9a1.12,1.12,0,0,0-.38-.11l0-.32h-.25l0,.31a1.27,1.27,0,0,0-.39.12l-.22-.23-.2.14.15.28a1.4,1.4,0,0,0-.26.33l-.32-.06a1.55,1.55,0,0,0-.08.23l.29.14a1.12,1.12,0,0,0,0,.27,1,1,0,0,0,0,.17l-.29.14a1.41,1.41,0,0,0,.06.22l.31-.05a1.51,1.51,0,0,0,.27.39l-.15.28.17.14.23-.23a1.14,1.14,0,0,0,.46.15l0,.32h.22l.05-.32a1.25,1.25,0,0,0,.46-.15l.22.23.18-.14-.16-.28a1.14,1.14,0,0,0,.27-.39l.31.05a1.42,1.42,0,0,0,.07-.22ZM29,11a.94.94,0,1,1,.94-.94A.94.94,0,0,1,29,11Z"/><path class="cls-4" d="M29,9.26a.79.79,0,0,0-.79.79.79.79,0,0,0,.79.8.8.8,0,0,0,.8-.8A.79.79,0,0,0,29,9.26Zm0,1.5a.71.71,0,1,1,.71-.71A.71.71,0,0,1,29,10.76Z"/></g></svg>