<?xml version="1.0" encoding="utf-8"?>
<!-- Generator: Adobe Illustrator 25.0.0, SVG Export Plug-In . SVG Version: 6.00 Build 0)  -->
<svg version="1.1" id="レイヤー_1" xmlns="http://www.w3.org/2000/svg" xmlns:xlink="http://www.w3.org/1999/xlink" x="0px"
	 y="0px" viewBox="0 0 30.5 20" style="enable-background:new 0 0 30.5 20;" xml:space="preserve">
<style type="text/css">
	.st0{fill:none;stroke:#ECB667;stroke-width:0.25;stroke-linejoin:round;}
	.st1{fill:none;stroke:#ECB667;stroke-width:0.25;stroke-linecap:round;stroke-linejoin:round;}
	.st2{fill:none;stroke:#ECB667;stroke-width:0.25;stroke-linecap:round;stroke-miterlimit:10;}
	.st3{fill:#ECB667;}
</style>
<g id="レイヤー_1_1_">
	<path class="st0" d="M40.6,10.8H4.9l-1.4-0.7l1.4-0.9H40"/>
	<line class="st1" x1="5.1" y1="10.1" x2="47.5" y2="10.1"/>
</g>
<g id="レイヤー_2_1_">
	<line class="st2" x1="3.3" y1="10.4" x2="3.3" y2="1.5"/>
	<circle class="st3" cx="2.6" cy="2.2" r="0.4"/>
	<rect x="2.7" y="2.1" class="st3" width="0.7" height="0.3"/>
	<circle class="st3" cx="2.6" cy="3.2" r="0.4"/>
	<rect x="2.7" y="3.1" class="st3" width="0.7" height="0.3"/>
	<circle class="st3" cx="2.6" cy="4.2" r="0.4"/>
	<rect x="2.7" y="4.1" class="st3" width="0.7" height="0.3"/>
	<circle class="st3" cx="2.6" cy="5.2" r="0.4"/>
	<rect x="2.7" y="5.1" class="st3" width="0.7" height="0.3"/>
	<circle class="st3" cx="2.6" cy="6.2" r="0.4"/>
	<rect x="2.7" y="6.1" class="st3" width="0.7" height="0.3"/>
	<circle class="st3" cx="2.6" cy="7.2" r="0.4"/>
	<rect x="2.7" y="7.1" class="st3" width="0.7" height="0.3"/>
	<circle class="st3" cx="2.6" cy="8.2" r="0.4"/>
	<rect x="2.7" y="8.1" class="st3" width="0.7" height="0.3"/>
	<line class="st2" x1="3.3" y1="18.4" x2="3.3" y2="9.5"/>
	<circle class="st3" cx="2.6" cy="12.2" r="0.4"/>
	<rect x="2.7" y="12.1" class="st3" width="0.7" height="0.3"/>
	<circle class="st3" cx="2.6" cy="13.2" r="0.4"/>
	<rect x="2.7" y="13.1" class="st3" width="0.7" height="0.3"/>
	<circle class="st3" cx="2.6" cy="14.2" r="0.4"/>
	<rect x="2.7" y="14.1" class="st3" width="0.7" height="0.3"/>
	<circle class="st3" cx="2.6" cy="15.2" r="0.4"/>
	<rect x="2.7" y="15.1" class="st3" width="0.7" height="0.3"/>
	<circle class="st3" cx="2.6" cy="16.2" r="0.4"/>
	<rect x="2.7" y="16.1" class="st3" width="0.7" height="0.3"/>
	<circle class="st3" cx="2.6" cy="17.2" r="0.4"/>
	<rect x="2.7" y="17.1" class="st3" width="0.7" height="0.3"/>
	<circle class="st3" cx="2.6" cy="18.2" r="0.4"/>
	<rect x="2.7" y="18.1" class="st3" width="0.7" height="0.3"/>
	<path class="st3" d="M0,10.4c0,0.1,0,0.1,0.1,0.2l0.3-0.1c0.1,0.1,0.2,0.3,0.3,0.4l-0.2,0.3l0.2,0.1l0.2-0.2
		c0.1,0.1,0.3,0.1,0.5,0.1l0,0.3h0.2v-0.3c0.2,0,0.3-0.1,0.5-0.1l0.2,0.2l0.2-0.1L2.3,11c0.1-0.1,0.2-0.2,0.3-0.4l0.3,0.1
		c0-0.1,0-0.1,0.1-0.2l-0.3-0.1c0-0.1,0-0.1,0-0.2c0-0.1,0-0.2,0-0.3L3,9.7c0-0.1,0-0.2-0.1-0.2L2.6,9.5C2.5,9.4,2.4,9.3,2.3,9.2
		l0.1-0.3L2.3,8.8L2,9C1.9,8.9,1.8,8.9,1.6,8.9V8.6H1.4v0.3C1.3,8.9,1.1,8.9,1,9L0.7,8.7L0.5,8.9l0.2,0.3C0.6,9.2,0.5,9.4,0.5,9.5
		L0.1,9.4c0,0.1-0.1,0.2-0.1,0.2l0.3,0.1c0,0.1,0,0.2,0,0.3c0,0.1,0,0.1,0,0.2L0,10.4z M1.5,11c-0.5,0-0.9-0.4-0.9-0.9
		S1,9.1,1.5,9.1c0.5,0,0.9,0.4,0.9,0.9C2.5,10.6,2.1,11,1.5,11L1.5,11z"/>
	<path class="st3" d="M1.5,9.3c-0.4,0-0.8,0.4-0.8,0.8c0,0.4,0.4,0.8,0.8,0.8c0,0,0,0,0,0c0.4,0,0.8-0.4,0.8-0.8v0
		C2.3,9.6,2,9.3,1.5,9.3C1.5,9.3,1.5,9.3,1.5,9.3z M0.8,10.1L0.8,10.1c0-0.4,0.3-0.7,0.7-0.7c0.4,0,0.7,0.3,0.7,0.7
		s-0.3,0.7-0.7,0.7S0.8,10.4,0.8,10.1z"/>
</g>
</svg>
