<svg id="レイヤー_2" data-name="レイヤー 2" xmlns="http://www.w3.org/2000/svg" viewBox="0 0 1072.74 632.74"><defs><style>.cls-1{fill:none;}.cls-1,.cls-2{stroke:#e7b06c;stroke-miterlimit:10;stroke-width:2px;}.cls-2{fill:#e7b06c;}</style></defs><line class="cls-1" x1="52.33" y1="26.87" x2="505.49" y2="26.87"/><line class="cls-1" x1="26.87" y1="581.21" x2="26.87" y2="51.74"/><line class="cls-1" x1="1020.96" y1="605.87" x2="52.33" y2="605.87"/><line class="cls-1" x1="1045.87" y1="51.58" x2="1045.87" y2="580.41"/><line class="cls-1" x1="505.49" y1="26.87" x2="1021.33" y2="26.87"/><line class="cls-1" x1="52.33" y1="26.87" x2="26.87" y2="52.33"/><polyline class="cls-1" points="26.87 52.33 1.41 26.87 26.87 1.41 52.33 26.87"/><rect class="cls-1" x="532.81" y="-302.33" width="36" height="36" transform="translate(857.44 617.4) rotate(-45)"/><rect class="cls-1" x="532.81" y="276.67" width="36" height="36" transform="translate(448.03 786.99) rotate(-45)"/><rect class="cls-1" x="-486.19" y="276.67" width="36" height="36" transform="translate(149.57 66.44) rotate(-45)"/><polyline class="cls-1" points="1045.87 80.98 456 80.98 409.19 26.87"/><polygon class="cls-2" points="409.19 26.87 456 80.98 1045.87 80.98 1045.87 52.33 1020.41 26.87 409.19 26.87"/></svg>