<svg id="レイヤー_1" data-name="レイヤー 1" xmlns="http://www.w3.org/2000/svg" viewBox="0 0 473.13 105.22"><defs><style>.cls-1,.cls-2{fill:none;stroke-linecap:round;stroke-miterlimit:10;stroke-width:4px;}.cls-1{stroke:#dead64;}.cls-2{stroke:#e5b165;}.cls-3{fill:#dead64;}</style></defs><rect class="cls-1" x="452.72" y="55.69" width="14.81" height="13.9" transform="translate(827.3 -221.66) rotate(134.5)"/><rect class="cls-2" x="5.51" y="55.69" width="14.81" height="13.9" transform="translate(48.54 9.53) rotate(45.5)"/><path class="cls-3" d="M178,36.42V69.84h-3.57L148.49,38.5v27q0,2.09,5.1,2.18v2.23l-14.16,0V67.61a17.53,17.53,0,0,0,4.16-.39,1.82,1.82,0,0,0,1.49-1.84V37a2.59,2.59,0,0,0-1.44-2.57,11.8,11.8,0,0,0-4-.45V31.66H152l22.68,27v-22a2.2,2.2,0,0,0-1.34-2.27,13.55,13.55,0,0,0-3.86-.35V31.71H183.2V34a15.49,15.49,0,0,0-3.71.35A2,2,0,0,0,178,36.42Z"/><path class="cls-3" d="M203,70.93q-7,.09-11.29-3.37Q187,63.79,187,56.67t4.6-10.94q4.17-3.42,11.19-3.47t11.29,3.37q4.67,3.76,4.66,10.74-.06,7.38-4.61,11.14Q210,70.82,203,70.93Zm-.25-25.75q-8.87.2-8.71,11.49T203,67.91q8.52,0,8.52-11.54Q211.48,45.08,202.76,45.18Z"/><path class="cls-3" d="M234.85,70.78q-7.38-.11-7.38-5.45V45.82h-5.74V43.05q8.81,0,9.06-9h3.37v9h7.52v2.77h-7.52V64.49a2.68,2.68,0,0,0,1,2.28,2.86,2.86,0,0,0,2,.55,10.86,10.86,0,0,0,4.55-1.49l1,2.62a10.55,10.55,0,0,1-3.64,1.71A14.06,14.06,0,0,1,234.85,70.78Z"/><path class="cls-3" d="M249.61,47.56q-.3-1.94-4.36-1.93V43.3h11l-.05,21.34c0,1.68,1,2.58,2.92,2.68.33,0,.85,0,1.54,0v2.48H245V67.36a14.28,14.28,0,0,0,3.12-.19,2.34,2.34,0,0,0,1.49-2.53Zm3.51-8.42a3.94,3.94,0,0,1-2.94-1.24A4,4,0,0,1,249,35a4,4,0,0,1,1.22-2.9,4.12,4.12,0,0,1,5.81,0,4,4,0,0,1,1.29,2.87,3.89,3.89,0,0,1-1.21,3A4.05,4.05,0,0,1,253.12,39.14Z"/><path class="cls-3" d="M280.06,70.88q-6.78,0-10.85-3.22c-3-2.38-4.55-5.87-4.55-10.5s1.38-8.38,4.13-11,6.58-3.91,11.47-3.91q10.29,0,12.62,5.94a3,3,0,0,1,.35,1.44,2.79,2.79,0,0,1-2.13,3,4,4,0,0,1-1.09.15,2.92,2.92,0,0,1-2.08-.8,2.54,2.54,0,0,1-.84-1.93,3.17,3.17,0,0,1,.15-.86,3.2,3.2,0,0,0,.15-.77,2.35,2.35,0,0,0-.62-1.49,3.19,3.19,0,0,0-1.31-1,17.14,17.14,0,0,0-5.25-1,7.64,7.64,0,0,0-6.49,3.62,15.17,15.17,0,0,0-1.88,8.22q.11,5,2,7.67,2.13,2.88,6.93,3.07a12.21,12.21,0,0,0,5.9-1.43,11.52,11.52,0,0,0,4.65-4L293,64.34A11.49,11.49,0,0,1,288,69.12,17.18,17.18,0,0,1,280.06,70.88Z"/><path class="cls-3" d="M304.67,57.11q.19,9.7,8.86,10.06,7.64.24,11.24-4.26l2,2.33q-3.86,5.3-13.12,5.44-7.38.1-11.58-3.17-4.51-3.51-4.51-10.3,0-7.32,4.06-11.14,4-3.66,11.34-3.71,6.54,0,10.15,2.87,4.61,3.66,4.41,11.88Zm8-12a7,7,0,0,0-6,3.27,9.16,9.16,0,0,0-1.58,5.79h15.35Q319.82,45,312.69,45.08Z"/><line class="cls-2" x1="-251.74" y1="25.64" x2="56.68" y2="25.64"/><line class="cls-1" x1="-260.55" y1="62.73" x2="2.98" y2="62.73"/><line class="cls-2" x1="78.69" y1="89.84" x2="56.68" y2="25.64"/><line class="cls-2" x1="97.28" y1="89.84" x2="80.59" y2="41.15"/><line class="cls-2" x1="-259.55" y1="41.21" x2="79.42" y2="41.21"/><line class="cls-2" x1="724.78" y1="25.64" x2="416.36" y2="25.64"/><line class="cls-1" x1="733.59" y1="62.73" x2="470.06" y2="62.73"/><line class="cls-2" x1="394.36" y1="89.84" x2="416.36" y2="25.64"/><line class="cls-2" x1="375.76" y1="89.84" x2="392.45" y2="41.15"/><line class="cls-2" x1="732.59" y1="41.21" x2="393.62" y2="41.21"/><line class="cls-2" x1="78.69" y1="89.84" x2="395.21" y2="89.84"/><rect class="cls-3" x="9.93" y="59.66" width="5.96" height="5.96" transform="translate(48.08 9.21) rotate(45)"/><rect class="cls-3" x="457.15" y="59.66" width="5.96" height="5.96" transform="translate(179.06 -307.01) rotate(45)"/></svg>